<svg width="36" height="32" viewBox="0 0 36 32" fill="none" xmlns="http://www.w3.org/2000/svg">
<path d="M27.9887 32C25.4873 32 23.493 31.1769 22.0056 29.5306C20.5183 27.8157 19.7746 25.5177 19.7746 22.6367C19.7746 19.3441 20.3831 16.4973 21.6 14.0965C22.8845 11.6956 24.5408 9.39764 26.569 7.20257C28.6648 5.0075 30.8958 2.60664 33.262 0L34.1747 0.41157C32.6873 2.19507 31.3352 3.73847 30.1183 5.0418C28.9014 6.34512 27.9211 7.61414 27.1775 8.84887C26.4338 10.015 26.062 11.3526 26.062 12.8617C26.062 14.0279 26.4 14.9196 27.0761 15.537C27.7521 16.1543 28.5634 16.6688 29.5099 17.0804C30.5239 17.4234 31.5042 17.8349 32.4507 18.3151C33.4648 18.7953 34.3099 19.4812 34.9859 20.373C35.662 21.2647 36 22.5338 36 24.1801C36 26.5809 35.2563 28.5016 33.769 29.9421C32.2817 31.314 30.3549 32 27.9887 32ZM8.21408 32C5.71268 32 3.71831 31.1769 2.23099 29.5306C0.743662 27.8157 0 25.5177 0 22.6367C0 19.3441 0.608451 16.4973 1.82535 14.0965C3.10986 11.6956 4.7662 9.39764 6.79437 7.20257C8.89014 5.0075 11.1211 2.60664 13.4873 0L14.4 0.41157C12.9127 2.19507 11.5606 3.73847 10.3437 5.0418C9.12676 6.34512 8.14648 7.61414 7.40282 8.84887C6.65915 10.015 6.28732 11.3526 6.28732 12.8617C6.28732 14.0279 6.62535 14.9196 7.30141 15.537C7.97746 16.1543 8.78873 16.6688 9.73521 17.0804C10.7493 17.4234 11.7296 17.8349 12.6761 18.3151C13.6901 18.7953 14.5352 19.4812 15.2113 20.373C15.8873 21.2647 16.2254 22.5338 16.2254 24.1801C16.2254 26.5809 15.4817 28.5016 13.9944 29.9421C12.507 31.314 10.5803 32 8.21408 32Z" fill="#001329"/>
</svg>
