<svg width="219" height="80" viewBox="0 0 219 80" fill="none" xmlns="http://www.w3.org/2000/svg">
<g clip-path="url(#clip0_717_5225)">
<path d="M109.078 24.7123L119.492 24.0479C119.719 25.7687 120.179 27.0787 120.871 27.9781C122.001 29.4358 123.612 30.1646 125.704 30.1646C127.264 30.1646 128.469 29.7928 129.316 29.0492C129.705 28.7404 130.02 28.3473 130.239 27.8986C130.459 27.4499 130.576 26.9569 130.584 26.4559C130.578 25.9756 130.468 25.5025 130.263 25.0699C130.057 24.6372 129.761 24.2554 129.396 23.9513C128.603 23.2157 126.735 22.5191 123.79 21.8614C118.989 20.7661 115.565 19.3084 113.519 17.4883C112.523 16.6403 111.728 15.5751 111.192 14.3719C110.656 13.1687 110.394 11.8584 110.425 10.5381C110.433 8.6723 110.984 6.85066 112.009 5.30327C113.181 3.55924 114.835 2.20817 116.763 1.42146C118.876 0.47919 121.781 0.00805664 125.478 0.00805664C130.004 0.00805664 133.456 0.864418 135.833 2.57714C138.209 4.28986 139.624 7.01197 140.075 10.7434L129.756 11.3555C129.492 9.74481 128.916 8.5663 128.029 7.82001C127.142 7.07371 125.927 6.7019 124.385 6.70459C123.113 6.70459 122.154 6.98244 121.513 7.53008C121.21 7.76701 120.965 8.0721 120.797 8.42142C120.629 8.77073 120.543 9.15479 120.546 9.54347C120.556 9.84509 120.632 10.1407 120.769 10.4083C120.906 10.676 121.101 10.9088 121.338 11.0898C121.853 11.5649 123.077 12.0079 125.01 12.4186C129.796 13.4655 133.229 14.5259 135.31 15.5997C137.391 16.6735 138.896 18.0037 139.826 19.5903C140.774 21.1997 141.264 23.0457 141.24 24.9217C141.251 27.1934 140.596 29.4169 139.358 31.3082C138.07 33.2802 136.237 34.8212 134.09 35.7377C131.832 36.7444 128.988 37.2477 125.557 37.2477C119.533 37.2477 115.361 36.0692 113.039 33.7122C110.718 31.3552 109.398 28.3552 109.078 24.7123ZM2.48373 36.6437V0.6161H20.7294C24.1124 0.6161 26.6978 0.910055 28.4857 1.49796C30.2467 2.06976 31.7693 3.22347 32.8114 4.77576C33.9456 6.49871 34.523 8.53832 34.4632 10.6106C34.5092 12.4189 34.071 14.206 33.1956 15.7809C32.3556 17.2409 31.166 18.4613 29.7374 19.3285C28.5364 20.0019 27.2403 20.4828 25.895 20.754C26.9016 21.0554 27.8607 21.5015 28.7431 22.0788C29.3989 22.633 29.9892 23.2627 30.5019 23.9553C31.0789 24.6437 31.5896 25.3867 32.027 26.1741L37.3273 36.6437H24.9561L19.1093 25.6224C18.3672 24.1969 17.707 23.2708 17.1286 22.8439C16.3405 22.2887 15.4016 21.9973 14.4429 22.0104H13.4684V36.6437H2.48373ZM13.4684 15.2051H18.0952C19.0744 15.1308 20.0449 14.9664 20.9948 14.7139C21.7047 14.5754 22.3379 14.1717 22.7695 13.5823C23.226 12.987 23.4691 12.2512 23.4588 11.4965C23.4886 10.9954 23.406 10.494 23.2173 10.0301C23.0286 9.56622 22.7386 9.15198 22.3694 8.81865C21.6458 8.19584 20.2845 7.88443 18.2853 7.88443H13.4684V15.2051ZM0 67.4727L10.4142 66.8123C10.6414 68.5331 11.1009 69.8431 11.7928 70.7424C12.9099 72.2001 14.5247 72.929 16.6374 72.929C18.1982 72.929 19.4024 72.5558 20.2501 71.8095C20.6383 71.5008 20.9537 71.1077 21.173 70.6589C21.3924 70.2102 21.5101 69.7173 21.5177 69.2163C21.5108 68.7361 21.4008 68.2632 21.1956 67.8306C20.9903 67.398 20.6947 67.0162 20.3293 66.7116C19.5371 65.9761 17.6687 65.2808 14.7241 64.6258C9.92304 63.5251 6.49916 62.0674 4.45249 60.2527C3.45667 59.4037 2.66154 58.3378 2.12599 57.134C1.59044 55.9301 1.32821 54.6193 1.35872 53.2984C1.36749 51.4328 1.91878 49.6115 2.94324 48.0636C4.1145 46.3196 5.76899 44.9685 7.69679 44.1818C9.80948 43.2396 12.7144 42.7684 16.4116 42.7684C20.9381 42.7684 24.3897 43.6248 26.7664 45.3375C29.1432 47.0502 30.5574 49.7723 31.009 53.5038L20.7096 54.1199C20.4455 52.5092 19.8698 51.3293 18.9825 50.5804C18.0952 49.8314 16.8817 49.4636 15.3421 49.477C14.0718 49.477 13.1145 49.7455 12.4701 50.2824C12.167 50.5193 11.922 50.8244 11.7543 51.1737C11.5866 51.523 11.5008 51.9071 11.5036 52.2958C11.5126 52.5981 11.5885 52.8944 11.7257 53.1628C11.8628 53.4312 12.0577 53.6648 12.2959 53.8461C12.8108 54.3212 14.0349 54.7628 15.968 55.1709C20.7532 56.2178 24.1863 57.2782 26.2673 58.352C28.3483 59.4259 29.8536 60.756 30.7832 62.3426C31.7313 63.9523 32.2209 65.798 32.1974 67.674C32.2093 69.9458 31.5541 72.1694 30.3158 74.0605C29.0273 76.0325 27.1944 77.5735 25.0472 78.49C22.7893 79.4967 19.9451 80 16.5146 80C10.4908 80 6.31826 78.8215 3.99694 76.4645C1.67563 74.1075 0.343312 71.1102 0 67.4727ZM64.5691 64.6499L74.1633 67.5975C73.6327 70.0717 72.5947 72.4043 71.1171 74.4431C69.7706 76.2445 67.9996 77.6722 65.9674 78.5947C63.9128 79.5262 61.2984 79.992 58.124 79.992C54.2737 79.992 51.1284 79.4242 48.6882 78.2886C46.2481 77.1531 44.1354 75.1518 42.3502 72.2847C40.5755 69.4203 39.6895 65.7546 39.6921 61.2876C39.6921 55.3333 41.2503 50.7549 44.3665 47.5522C47.4827 44.3496 51.8929 42.7496 57.5972 42.7523C62.0629 42.7523 65.5713 43.6704 68.1223 45.5066C70.6734 47.3428 72.5695 50.1616 73.8108 53.9629L64.1452 56.1494C63.9182 55.2924 63.56 54.4771 63.0836 53.7333C62.4982 52.9071 61.7284 52.2337 60.8375 51.7683C59.9142 51.3006 58.8941 51.0645 57.8626 51.0797C55.3828 51.0797 53.4827 52.0944 52.1623 54.1239C51.1588 55.6299 50.6583 57.9937 50.661 61.2151C50.661 65.2043 51.2578 67.9398 52.4515 69.4217C53.6451 70.9035 55.3208 71.6431 57.4783 71.6404C59.5699 71.6404 61.1544 71.0431 62.2319 69.8485C63.3094 68.6539 64.0884 66.921 64.5691 64.6499ZM82.5969 43.3765H93.5419V55.9722H105.505V43.3765H116.498V79.3879H105.505V64.8311H93.5419V79.4H82.5969V43.3765ZM123.311 61.4043C123.311 55.5306 124.922 50.9535 128.144 47.673C131.366 44.3926 135.855 42.755 141.612 42.7604C147.507 42.7604 152.049 44.3711 155.239 47.5925C158.429 50.8139 160.028 55.3199 160.036 61.1104C160.036 65.3224 159.339 68.7747 157.945 71.4673C156.588 74.1244 154.485 76.3121 151.904 77.7531C149.263 79.251 145.98 80 142.056 80C138.063 80 134.762 79.353 132.153 78.0591C129.472 76.7087 127.254 74.5688 125.787 71.9183C124.134 69.121 123.308 65.6164 123.311 61.4043ZM134.256 61.4567C134.256 65.0942 134.916 67.7063 136.237 69.2928C137.557 70.8794 139.366 71.6726 141.664 71.6726C144.017 71.6726 145.838 70.8955 147.126 69.3411C148.415 67.7868 149.059 64.9949 149.059 60.9654C149.059 57.5749 148.386 55.0971 147.039 53.532C145.692 51.9669 143.868 51.1857 141.565 51.1884C140.563 51.1518 139.567 51.3458 138.65 51.7558C137.733 52.1658 136.919 52.7813 136.268 53.5562C134.93 55.1669 134.259 57.8004 134.256 61.4567Z" fill="#fcc400"/>
<path d="M155.395 61.4044C155.395 55.5306 157.005 50.9535 160.227 47.6731C163.449 44.3926 167.939 42.755 173.696 42.7604C179.595 42.7604 184.139 44.3711 187.327 47.5925C190.514 50.8139 192.108 55.3213 192.108 61.1144C192.108 65.3265 191.412 68.7787 190.02 71.4713C188.662 74.1276 186.56 76.315 183.979 77.7571C181.338 79.2551 178.056 80.0041 174.131 80.0041C170.136 80.0041 166.835 79.3571 164.228 78.0631C161.547 76.7118 159.328 74.5722 157.858 71.9223C156.216 69.1224 155.395 65.6164 155.395 61.4044ZM166.344 61.4567C166.344 65.0942 167.004 67.7063 168.324 69.2928C169.645 70.8794 171.456 71.674 173.759 71.6767C176.112 71.6767 177.933 70.8995 179.222 69.3452C180.51 67.7908 181.155 64.9989 181.155 60.9695C181.155 57.5789 180.483 55.1011 179.139 53.536C177.794 51.971 175.969 51.1898 173.664 51.1925C172.661 51.1532 171.662 51.3455 170.743 51.7549C169.824 52.1643 169.008 52.7802 168.356 53.5562C167.012 55.1669 166.341 57.8004 166.344 61.4567Z" fill="#fcc400"/>
<path d="M190.967 43.3765H201.916V70.521H219.001V79.3799H190.967V43.3765Z" fill="#fcc400"/>
</g>
<defs>
<clipPath id="clip0_717_5225">
<rect width="219" height="80" fill="white"/>
</clipPath>
</defs>
</svg>
