<svg width="16" height="17" viewBox="0 0 16 17" fill="none" xmlns="http://www.w3.org/2000/svg">
<g id="star">
<path id="Vector" d="M14.6562 7.64875L11.8375 10.1088L12.6818 13.7713C12.7265 13.9627 12.7138 14.1631 12.6452 14.3474C12.5766 14.5316 12.4552 14.6916 12.2962 14.8072C12.1372 14.9229 11.9477 14.9891 11.7512 14.9976C11.5548 15.0061 11.3602 14.9565 11.1918 14.855L7.99746 12.9175L4.80996 14.855C4.64157 14.9565 4.447 15.0061 4.25057 14.9976C4.05415 14.9891 3.86459 14.9229 3.70559 14.8072C3.54659 14.6916 3.42521 14.5316 3.35662 14.3474C3.28803 14.1631 3.27528 13.9627 3.31996 13.7713L4.16309 10.1125L1.34372 7.64875C1.1946 7.52014 1.08677 7.35037 1.03375 7.16072C0.980734 6.97107 0.98489 6.76999 1.0457 6.58269C1.10651 6.3954 1.22126 6.23023 1.37556 6.10789C1.52987 5.98555 1.71686 5.91149 1.91309 5.895L5.62934 5.57313L7.07996 2.11313C7.15572 1.93157 7.2835 1.77649 7.44721 1.66741C7.61092 1.55833 7.80324 1.50013 7.99996 1.50013C8.19669 1.50013 8.38901 1.55833 8.55272 1.66741C8.71643 1.77649 8.84421 1.93157 8.91996 2.11313L10.375 5.57313L14.09 5.895C14.2862 5.91149 14.4732 5.98555 14.6275 6.10789C14.7818 6.23023 14.8965 6.3954 14.9574 6.58269C15.0182 6.76999 15.0223 6.97107 14.9693 7.16072C14.9163 7.35037 14.8085 7.52014 14.6593 7.64875H14.6562Z" fill="#FCC400"/>
</g>
</svg>
