<svg width="14" height="14" viewBox="0 0 14 14" fill="none" xmlns="http://www.w3.org/2000/svg">
<path d="M12.824 6.25517L10.3576 8.40767L11.0965 11.6124C11.1356 11.7799 11.1244 11.9552 11.0644 12.1165C11.0044 12.2777 10.8982 12.4176 10.759 12.5188C10.6199 12.62 10.454 12.678 10.2822 12.6854C10.1103 12.6928 9.94005 12.6494 9.79271 12.5606L6.99763 10.8653L4.20857 12.5606C4.06122 12.6494 3.89097 12.6928 3.7191 12.6854C3.54723 12.678 3.38136 12.62 3.24224 12.5188C3.10311 12.4176 2.9969 12.2777 2.93689 12.1165C2.87688 11.9552 2.86572 11.7799 2.90482 11.6124L3.64255 8.41095L1.1756 6.25517C1.04512 6.14264 0.950768 5.99408 0.904379 5.82814C0.857989 5.6622 0.861626 5.48625 0.914833 5.32237C0.968039 5.15849 1.06845 5.01396 1.20347 4.90691C1.33848 4.79987 1.5021 4.73507 1.6738 4.72064L4.92552 4.439L6.19482 1.4115C6.2611 1.25264 6.37291 1.11694 6.51615 1.0215C6.6594 0.926052 6.82768 0.875122 6.99982 0.875122C7.17195 0.875122 7.34023 0.926052 7.48348 1.0215C7.62673 1.11694 7.73853 1.25264 7.80482 1.4115L9.07794 4.439L12.3286 4.72064C12.5003 4.73507 12.6639 4.79987 12.7989 4.90691C12.9339 5.01396 13.0343 5.15849 13.0875 5.32237C13.1407 5.48625 13.1444 5.6622 13.098 5.82814C13.0516 5.99408 12.9572 6.14264 12.8268 6.25517H12.824Z" fill="#FCC400"/>
</svg>
